<?xml version="1.0" standalone="no"?><!DOCTYPE svg PUBLIC "-//W3C//DTD SVG 1.1//EN" "http://www.w3.org/Graphics/SVG/1.1/DTD/svg11.dtd"><svg t="1760499821519" class="icon" viewBox="0 0 1024 1024" version="1.1" xmlns="http://www.w3.org/2000/svg" p-id="9681" id="mx_n_1760499821520" data-spm-anchor-id="a313x.search_index.0.i34.37ea3a81BD9NK7" xmlns:xlink="http://www.w3.org/1999/xlink" width="200" height="200"><path d="M345.007918 107.44034c-9.456255-16.36347-30.381054-21.968365-46.746663-12.520664l-59.256634 34.215307c-16.365609 9.447702-21.970504 30.3725-12.522802 46.735971l8.553826 14.810951 88.889229-51.32296 29.639009-17.107654z m0 0M139.557832 444.925157c-18.251728-4.888512-37.005993 5.938494-41.892367 24.181668l-17.708559 66.10825c-4.897066 18.251728 5.92994 37.0231 24.190222 41.918028l16.523854 4.409497 8.846796-33.019909 17.650821-66.133911 8.844657-33.039156z m0 0" fill="#cdcdcd" p-id="9682" data-spm-anchor-id="a313x.search_index.0.i33.37ea3a81BD9NK7" class="selected"></path><path d="M129.515639 548.522691l17.727806-66.133911z m0 0M650.065178 192.067625l66.142465 17.727806z m0 0" fill="#9BC9FF" p-id="9683"></path><path d="M621.46332 166.699113l-4.411636 16.523855 33.013494 8.844657 66.142465 17.659375 33.034879 8.838241 4.426605-16.523854c4.888512-18.241035-5.938494-37.003854-24.190222-41.892367l-66.099695-17.706421a34.213168 34.213168 0 0 0-25.986526 3.440777 34.215307 34.215307 0 0 0-15.931502 20.815737z m0 0M756.20106 956.473932C576.196469 1060.441419 345.993747 998.787574 242.036952 818.772292c-103.950379-180.006729-42.285842-410.207313 137.737995-514.149139 180.023837-103.939687 410.215867-42.258042 514.149138 137.763656 103.971764 179.989621 42.309365 410.192344-137.723025 514.089262z m0 0" fill="#cdcdcd" p-id="9684" data-spm-anchor-id="a313x.search_index.0.i32.37ea3a81BD9NK7" class="selected"></path><path d="M721.985753 897.28359c-147.286203 85.012207-335.602975 34.531798-420.623735-112.754405-85.029314-147.286203-34.55746-335.602975 112.728743-420.63229 147.275511-85.029314 335.602975-34.566014 420.640843 112.703083 84.853961 147.328973 34.416322 335.536683-112.745851 420.683612z m0 0" fill="#FFCD00" p-id="9685"></path><path d="M721.985753 897.28359c-126.536758 72.891434-286.852578 47.037493-384.060403-61.931844 270.805599-10.091377 486.022018-173.815897 486.706324-374.830824 3.592607 5.136573 6.843061 10.606745 10.09993 16.081194 84.853961 147.326834 34.416322 335.534545-112.745851 420.681474z m0 0" fill="#FFD100" p-id="9686" data-spm-anchor-id="a313x.search_index.0.i36.37ea3a81BD9NK7" class=""></path><path d="M554.743472 680.187468c27.374384 7.300691 55.499366-8.962272 62.817165-36.336656s-8.938749-55.499366-36.302441-62.825718c-27.374384-7.334906-55.50792 8.904534-62.849241 36.270364-3.534869 13.155785-1.689381 27.181923 5.128019 38.977649s18.042159 20.398738 31.206498 23.914361z m0 0M415.594096 286.536087a333.137335 333.137335 0 0 0-35.761411 18.134112c-9.404932 5.474449-18.643065 11.295328-27.372245 17.449807L266.244282 172.774469l57.646377-33.364201 4.961219-2.906163z m0 0M716.173428 209.727l5.645526 1.53755-18.309467 68.263814a340.940563 340.940563 0 0 0-38.150067-12.497141 421.027904 421.027904 0 0 0-31.642743-7.007722l18.127697-67.404154z m0 0M216.967825 495.078382l-19.49631 69.799225-67.410569-18.134112 17.107653-64.3205 1.543966-5.645526z m0 0" fill="#D80027" p-id="9687"></path><path d="M696.324273 869.909206a17.101238 17.101238 0 0 1-14.82592-8.553827l-17.107653-29.628317a17.086269 17.086269 0 0 1-0.074846-17.176084 17.0991 17.0991 0 0 1 29.703163 0.066292l17.107653 29.630456a17.107653 17.107653 0 0 1 0 17.099099 17.092684 17.092684 0 0 1-14.802397 8.562381z m0 0M501.624208 895.553578a17.41773 17.41773 0 0 1-4.452267-0.583798c-9.120518-2.448533-14.541505-11.829942-12.086557-20.95046l8.853211-33.022048a17.11193 17.11193 0 0 1 33.056263 8.863903l-8.863903 33.045571a17.101238 17.101238 0 0 1-16.506747 12.646832z m0 0" fill="#231F20" p-id="9688"></path><path d="M908.784221 433.830844a391.429525 391.429525 0 0 0-190.215722-166.540867l9.78344-36.537671 16.506747 4.411636a17.107653 17.107653 0 0 0 20.956875-12.095111l4.42019-16.523855c7.334906-27.372245-8.904534-55.50792-36.270364-62.859934l-66.159572-17.700005c-27.363692-7.266476-55.465151 8.947303-62.866349 36.287471l-4.43516 16.521716a17.120484 17.120484 0 0 0 12.095111 20.941906l16.53027 4.426606-9.789854 36.546224a391.709663 391.709663 0 0 0-201.866033 26.431325l-24.04053-41.642167c34.566014-43.695085 38.877142-104.091517 10.867636-152.255977C370.160446 12.362418 295.930338-13.423093 231.402407 13.172893 166.874477 39.771017 132.374756 110.372164 151.043483 177.626627s84.635838 109.961581 153.635281 99.48742l23.830961 41.349198a391.517202 391.517202 0 0 0-123.786703 161.560402l-36.546225-9.781301 4.43516-16.513163a17.11193 17.11193 0 0 0-12.095111-20.959013l-16.523855-4.426606c-27.382938-7.334906-55.514335 8.913087-62.857796 36.285333l-17.710698 66.151019c-7.324214 27.382938 8.913087 55.516474 36.28961 62.859934l16.53027 4.426605a17.094823 17.094823 0 0 0 20.933352-12.095111l4.43516-16.508885 36.53767 9.783439C155.739533 749.47988 246.32242 914.575151 401.933635 987.132986c155.615492 72.549281 340.313995 35.795626 456.293193-90.815979 115.979198-126.605189 136.444228-313.803548 50.553116-462.484025zM659.018896 159.030608l66.099696 17.708559a17.107653 17.107653 0 0 1 12.095111 20.941906l-16.455424-4.418051-66.240834-17.74919-16.47467-4.42019c2.457087-9.088441 11.804281-14.477352 20.901275-12.060896z m3.233347 53.996031l33.06054 8.863902-8.994349 33.62937a410.002021 410.002021 0 0 0-33.08834-8.878872zM196.787209 192.978607C168.895319 143.928826 185.827619 81.562876 234.693492 53.354494c48.859458-28.216936 111.33447-11.69522 139.867898 36.980331a101.615184 101.615184 0 0 1-0.115477 102.404275l-27.115631-47.112339 14.802397-8.553827a17.109792 17.109792 0 0 0 6.257125-23.373331l-8.553827-14.793843a51.29516 51.29516 0 0 0-31.165868-23.950715 51.307991 51.307991 0 0 0-38.97765 5.132296l-59.258772 34.215307a51.325099 51.325099 0 0 0-23.950715 31.163729 51.382837 51.382837 0 0 0 5.132296 38.97765l8.553827 14.810951a17.11193 17.11193 0 0 0 23.371193 6.265678l14.81095-8.553827 27.205446 47.1102a101.60663 101.60663 0 0 1-88.769475-51.096283z m118.517546-68.430613l-59.258773 34.215306-14.785289 8.553827a17.120484 17.120484 0 0 1 6.265678-23.373331l59.256634-34.215307a17.103376 17.103376 0 0 1 13.023201-1.710765 16.968654 16.968654 0 0 1 10.382208 7.976443l-14.800259 8.553827z m-27.374384 55.291935l29.63901-17.107653 68.644459 118.891776a342.345529 342.345529 0 0 0-15.03335 8.179597c-4.961219 2.871947-9.806962 5.887171-14.612075 8.928056zM98.174418 552.632805a16.945131 16.945131 0 0 1-1.710765-12.988986l17.706421-66.084727a17.116207 17.116207 0 0 1 7.997828-10.43353 17.116207 17.116207 0 0 1 13.029617-1.678688l-4.42019 16.489639-6.43034 24.057638-15.771118 58.606543a17.094823 17.094823 0 0 1-10.401453-7.967889z m52.300235-16.205225l8.863903-33.08834 33.6144 9.002902a403.094806 403.094806 0 0 0-8.863902 33.090479z m597.17258 405.280309c-130.736687 75.262983-294.572407 60.8284-410.141021-36.139918-115.568614-96.957626-158.245794-255.793634-106.845849-397.624634 51.397806-141.824585 185.917423-236.442739 336.781265-236.851184a361.542455 361.542455 0 0 1 93.574587 12.388079c140.402511 37.581238 244.333644 156.056014 263.297478 300.160194 18.968111 144.10418-50.764823 285.441197-176.66646 358.065324z m0 0" fill="#231F20" p-id="9689" data-spm-anchor-id="a313x.search_index.0.i35.37ea3a81BD9NK7" class=""></path><path d="M652.103127 316.750341c-173.315498-46.436587-351.468185 56.418902-397.902633 229.742954-46.447279 173.315498 56.416764 351.466047 229.732262 397.902634a327.829685 327.829685 0 0 0 84.853961 11.261113c162.804984-0.620152 300.042579-121.584093 321.093547-283.020464 21.050968-161.436371-80.577047-313.542656-237.777137-355.886237z m61.330938 565.679529c-105.804421 61.095707-238.523457 49.543764-332.181445-28.911934s-128.298847-207.086006-86.699448-321.970314c41.601536-114.873616 150.568734-191.507349 272.745179-191.808872a293.582301 293.582301 0 0 1 75.940874 10.065716c113.656834 30.366085 197.790135 126.24379 213.152807 242.873078 15.354119 116.631427-41.098999 231.013198-143.00929 289.769433z m0 0" fill="#231F20" p-id="9690" data-spm-anchor-id="a313x.search_index.0.i38.37ea3a81BD9NK7" class=""></path><path d="M634.435198 382.698206a17.107653 17.107653 0 0 0-20.956875 12.09725l-44.90759 167.652865c-31.150898-0.410584-58.617236 20.364523-66.685633 50.452608-8.079089 30.088085 5.294819 61.816367 32.468188 77.052871l-5.136573 18.818419a17.120484 17.120484 0 0 0 12.095111 20.941906c1.454151 0.393476 2.948932 0.603045 4.452266 0.594491a17.107653 17.107653 0 0 0 16.506748-12.689602l5.136572-18.619542h0.609461c31.058945 0.051323 58.230175-20.86706 66.133911-50.895269 7.901597-30.032486-5.463757-61.615352-32.510957-76.86041l44.90759-167.652865c2.39721-9.111964-3.015224-18.450604-12.112219-20.892722z m-33.364201 256.734555c-4.593405 17.13973-21.525705 27.915413-38.992619 24.833897s-29.688194-19.004464-28.142089-36.672393c1.543966-17.674344 16.346363-31.23216 34.080584-31.240714 2.991701 0 5.966294 0.393476 8.846795 1.169736 18.26242 4.87782 29.104395 23.649192 24.207329 41.909474z m0 0M454.528977 399.790891a17.11193 17.11193 0 0 0-14.836613-8.654334c-6.137371-0.008554-11.810696 3.267562-14.868689 8.588042s-3.032332 11.879127 0.076985 17.173945l17.107653 29.630456c4.751651 8.111166 15.168073 10.867637 23.304901 6.163032a17.114069 17.114069 0 0 0 6.323416-23.270686z m0 0M798.803394 517.078824c8.111166-4.751651 10.859083-15.168073 6.16517-23.313455a17.105515 17.105515 0 0 0-23.272824-6.314862l-29.611209 17.107653a17.0991 17.0991 0 1 0-0.066292 29.703163 17.105515 17.105515 0 0 0 17.171807-0.072707z m0 0M766.318098 683.713783c-2.448533 9.120518 2.963901 18.510481 12.095111 20.95046l33.045571 8.844657c1.454151 0.40203 2.95107 0.600906 4.452267 0.600907a17.107653 17.107653 0 0 0 4.411636-33.637924l-33.071232-8.838241a17.0991 17.0991 0 0 0-20.935491 12.080141z m0 0M366.852253 726.957654l-29.613348 17.107654a17.0991 17.0991 0 1 0-0.066292 29.703163 17.105515 17.105515 0 0 0 17.173946-0.072708l29.613348-17.107653a17.109792 17.109792 0 0 0 6.16517-23.315593 17.105515 17.105515 0 0 0-23.272824-6.314863z m0 0M353.219592 590.128504a17.114069 17.114069 0 0 0 17.0157-14.883659c1.118413-8.536719-4.276913-16.573039-12.604064-18.76068l-33.056263-8.846795a17.103376 17.103376 0 1 0-8.863903 33.028463l33.073371 8.863903a16.560208 16.560208 0 0 0 4.435159 0.598768z m0 0" fill="#231F20" p-id="9691"></path><path d="M577.599297 616.375921a12.839294 12.839294 0 0 0-3.083655-1.543966 10.566114 10.566114 0 0 0-3.265423-1.026459 18.057128 18.057128 0 0 0-15.396888 4.619067 17.355714 17.355714 0 0 0 0 24.299283 16.008487 16.008487 0 0 0 5.647664 3.592607c2.063611 0.876767 4.276913 1.342951 6.515878 1.360058a20.892722 20.892722 0 0 0 3.233346-0.333599 10.566114 10.566114 0 0 0 3.265423-1.026459c1.09489-0.384922 2.129903-0.904567 3.083655-1.546104l2.56401-2.046503a17.355714 17.355714 0 0 0 0-24.301422z m0 0M717.559148 99.656358a17.107653 17.107653 0 0 0 20.941906-12.095111l17.700006-66.018434a17.11193 17.11193 0 0 0-33.054125-8.863903l-17.685037 66.018434a17.107653 17.107653 0 0 0 12.09725 20.956875z m0 0M651.844374 88.260522a17.116207 17.116207 0 0 0 16.513163 12.689602 17.092684 17.092684 0 0 0 4.443713-0.718521c9.13121-2.437841 14.543644-11.827804 12.097249-20.95046l-17.650821-66.056927a17.11193 17.11193 0 0 0-20.935491-12.022403c-9.094856 2.431425-14.509429 11.761512-12.118634 20.86706z m0 0M758.925454 112.944728a17.101238 17.101238 0 0 0 24.190222 0l48.359059-48.382583a17.107653 17.107653 0 1 0-7.527368-28.860611 17.101238 17.101238 0 0 0-16.639331 4.653282l-48.382582 48.39969a17.101238 17.101238 0 0 0 0 24.190222z m0 0" fill="#231F20" p-id="9692"></path></svg>